<svg xmlns="http://www.w3.org/2000/svg" width="16.857" height="24.062" viewBox="0 0 16.857 24.062"><defs><style>.a{fill:#909090;}</style></defs><g transform="translate(0 0)"><g transform="translate(0 0)"><path class="a" d="M85.045,14.429H82.637V12.976A4.816,4.816,0,0,0,85.045,8.81a1.605,1.605,0,0,0,.4-3.155V3.191A2.007,2.007,0,0,0,83.728,1.2,2.007,2.007,0,0,0,81.882,0H78.623a3.612,3.612,0,0,0-3.612,3.612V5.675a1.605,1.605,0,0,0,.4,3.135,4.816,4.816,0,0,0,2.408,4.166v1.453H75.412A3.612,3.612,0,0,0,71.8,18.041v6.02h.8v-6.02a2.81,2.81,0,0,1,2.81-2.81V18.9a1.605,1.605,0,1,0,.8,0V15.231h.2l3.492,4.656a.4.4,0,0,0,.642,0l3.492-4.656h.2v3.247a2.408,2.408,0,0,0-2.007,2.372v.8a.4.4,0,0,0,.4.4h1.2v-.8h-.8v-.4a1.605,1.605,0,0,1,3.211,0v.4h-.8v.8h1.2a.4.4,0,0,0,.4-.4v-.8a2.408,2.408,0,0,0-2.007-2.372V15.231a2.81,2.81,0,0,1,2.81,2.81v6.02h.8v-6.02A3.612,3.612,0,0,0,85.045,14.429Zm0-8.027a.8.8,0,0,1,0,1.605ZM76.616,20.449a.8.8,0,1,1-.8-.8A.8.8,0,0,1,76.616,20.449Zm-1.2-12.442a.8.8,0,0,1,0-1.605Zm.4-4.415a2.81,2.81,0,0,1,2.81-2.81h3.259a1.2,1.2,0,0,1,1.156.823l.036.108a.4.4,0,0,0,.365.273,1.2,1.2,0,0,1,1.2,1.2V5.6h-.209a6.37,6.37,0,0,1-1.4-2.89.422.422,0,0,0-.594-.285l-.369.213a10.206,10.206,0,0,1-5.057,1.357.4.4,0,0,0-.345.2l-.859,1.433Zm.4,5.218v-2.3L77.246,4.8a10.985,10.985,0,0,0,5.125-1.389A7.08,7.08,0,0,0,84.2,6.53l.04.04V8.81a4.014,4.014,0,1,1-8.027,0Zm5.619,4.535v1.084H78.623V13.345A4.728,4.728,0,0,0,81.834,13.345ZM79.269,17.68l-1.85-2.448h1.357l.65,1.272Zm.959,1.3-.285-.377.237-1.762h.1l.237,1.762Zm.153-2.942h-.305l-.4-.8h1.108ZM81.2,17.68,81.031,16.5l.65-1.272h1.357Z" transform="translate(-71.8 0)"/><ellipse class="a" cx="0.803" cy="0.803" rx="0.803" ry="0.803" transform="translate(10.034 6.402)"/><path class="a" d="M217.117,127.957h-.67l.67-2.3-.8-.217-.8,2.81a.4.4,0,0,0,.385.51h1.22Z" transform="translate(-208.288 -119.147)"/><path class="a" d="M225.923,193.92a2.324,2.324,0,0,1-1.654.686h-.47v.8h.47a3.122,3.122,0,0,0,2.224-.919Z" transform="translate(-216.174 -184.191)"/><ellipse class="a" cx="0.803" cy="0.803" rx="0.803" ry="0.803" transform="translate(5.218 6.402)"/></g></g></svg>