<svg xmlns="http://www.w3.org/2000/svg" width="42" height="27" viewBox="0 0 42 27"><g transform="translate(-60.001 -165)"><text transform="translate(72.001 180)" fill="#2c3e50" font-size="14" font-family="SegoeUI-Bold, Segoe UI" font-weight="700"><tspan x="-11.689" y="0">داک</tspan><tspan y="0" font-family="SegoeUIBlack, Segoe UI" font-weight="400"></tspan><tspan fill="#19bc9c"><tspan x="-9.352" y="7">ـآپ</tspan></tspan></text><g transform="translate(88.552 172.241)"><path d="M6,0a4.854,4.854,0,0,1,4.342,2.683l.573,1.146a4.854,4.854,0,0,1,0,4.342l-.573,1.146A4.854,4.854,0,0,1,6,12H6A4.854,4.854,0,0,1,1.658,9.317L1.085,8.171a4.854,4.854,0,0,1,0-4.342l.573-1.146A4.854,4.854,0,0,1,6,0Z" transform="translate(0.448 -0.241)" fill="#2c3e50"/><path d="M6,0a4.854,4.854,0,0,1,4.342,2.683l.573,1.146a4.854,4.854,0,0,1,0,4.342l-.573,1.146A4.854,4.854,0,0,1,6,12H6A4.854,4.854,0,0,1,1.658,9.317L1.085,8.171a4.854,4.854,0,0,1,0-4.342l.573-1.146A4.854,4.854,0,0,1,6,0Z" transform="translate(1.448 5.759)" fill="#19bc9c"/></g></g></svg>