<svg xmlns="http://www.w3.org/2000/svg" xmlns:xlink="http://www.w3.org/1999/xlink" width="103.71" height="263.987" viewBox="0 0 103.71 263.987">
  <defs>
    <linearGradient id="linear-gradient" x1="-2458.868" y1="0.5" x2="-2457.868" y2="0.5" gradientUnits="objectBoundingBox">
      <stop offset="0.005" stop-color="#e4e9f2"/>
      <stop offset="1" stop-color="#b4c2da"/>
    </linearGradient>
    <clipPath id="clip-path">
      <path id="Path_2889" data-name="Path 2889" d="M495.586,274.394l9.883,5.741c-1.237-.718-2.947-.623-4.829.464l-9.883-5.744C492.639,273.771,494.349,273.673,495.586,274.394Z" transform="translate(-490.757 -273.931)" fill="#fbfbfb"/>
    </clipPath>
    <clipPath id="clip-path-2">
      <path id="Path_2893" data-name="Path 2893" d="M474.956,305.265l-9.883-5.741a14.985,14.985,0,0,1,6.776-11.737l9.882,5.744A14.984,14.984,0,0,0,474.956,305.265Z" transform="translate(-465.073 -287.787)" fill="url(#linear-gradient)"/>
    </clipPath>
    <filter id="Path_2894" x="0" y="169.171" width="103.71" height="77.767" filterUnits="userSpaceOnUse">
      <feOffset dx="-4" input="SourceAlpha"/>
      <feGaussianBlur stdDeviation="3" result="blur"/>
      <feFlood flood-opacity="0.161"/>
      <feComposite operator="in" in2="blur"/>
      <feComposite in="SourceGraphic"/>
    </filter>
    <linearGradient id="linear-gradient-3" x1="-4973.569" y1="0.5" x2="-4972.569" y2="0.5" gradientUnits="objectBoundingBox">
      <stop offset="0" stop-color="#aabad6"/>
      <stop offset="1" stop-color="#96aac9"/>
    </linearGradient>
    <linearGradient id="linear-gradient-4" x1="-3101.251" y1="0.5" x2="-3100.251" y2="0.5" xlink:href="#linear-gradient-3"/>
    <linearGradient id="linear-gradient-5" x1="-1350.227" y1="0.5" x2="-1349.227" y2="0.5" xlink:href="#linear-gradient-3"/>
    <linearGradient id="linear-gradient-6" x1="-7447.95" y1="0.514" x2="-7463.024" y2="0.218" gradientUnits="objectBoundingBox">
      <stop offset="0" stop-color="#0e98b0"/>
      <stop offset="0.288" stop-color="#0a8eab"/>
      <stop offset="1" stop-color="#0076a0"/>
    </linearGradient>
    <linearGradient id="linear-gradient-7" x1="0.091" y1="0.495" x2="3.262" y2="0.537" gradientUnits="objectBoundingBox">
      <stop offset="0" stop-color="#4568dc"/>
      <stop offset="0.29" stop-color="#426fdd"/>
      <stop offset="0.716" stop-color="#3a82e2"/>
      <stop offset="1" stop-color="#3494e6"/>
    </linearGradient>
    <linearGradient id="linear-gradient-8" x1="-0.276" y1="0.5" x2="0.724" y2="0.5" xlink:href="#linear-gradient-7"/>
  </defs>
  <g id="Group_2910" data-name="Group 2910" transform="translate(-38.318 -171)">
    <g id="Group_2644" data-name="Group 2644" transform="translate(41 171)">
      <g id="Group_2624" data-name="Group 2624">
        <g id="Group_2620" data-name="Group 2620">
          <g id="Group_2619" data-name="Group 2619" style="isolation: isolate">
            <g id="Group_2614" data-name="Group 2614" transform="translate(78.852)">
              <path id="Path_2885" data-name="Path 2885" d="M495.586,274.394l9.883,5.741c-1.237-.718-2.947-.623-4.829.464l-9.883-5.744C492.639,273.771,494.349,273.673,495.586,274.394Z" transform="translate(-490.757 -273.931)" fill="#fbfbfb"/>
              <g id="Group_2613" data-name="Group 2613" clip-path="url(#clip-path)">
                <g id="Group_2612" data-name="Group 2612" transform="translate(0 0)" style="isolation: isolate">
                  <path id="Path_2886" data-name="Path 2886" d="M500.64,280.527l-9.883-5.744a7.03,7.03,0,0,1,2.051-.817l9.883,5.744a7.033,7.033,0,0,0-2.051.817Z" transform="translate(-490.757 -273.859)" fill="#fbfbfb"/>
                  <path id="Path_2887" data-name="Path 2887" d="M501.308,279.782l-9.883-5.744a3.9,3.9,0,0,1,2.659.289l9.883,5.741a3.9,3.9,0,0,0-2.659-.285Z" transform="translate(-489.374 -273.931)" fill="#fbfbfb"/>
                  <path id="Path_2888" data-name="Path 2888" d="M502.174,279.8l-9.883-5.741.12.068,9.883,5.741-.12-.068Z" transform="translate(-487.582 -273.665)" fill="#fbfbfb"/>
                </g>
              </g>
            </g>
            <g id="Group_2615" data-name="Group 2615" transform="translate(6.775 0.924)">
              <path id="Path_2890" data-name="Path 2890" d="M477.163,321.589l-9.883-5.743,72.077-41.614,9.883,5.743Z" transform="translate(-467.28 -274.232)" fill="#fff"/>
            </g>
            <g id="Group_2617" data-name="Group 2617" transform="translate(0 42.538)">
              <path id="Path_2891" data-name="Path 2891" d="M474.956,305.265l-9.883-5.741a14.985,14.985,0,0,1,6.776-11.737l9.882,5.744A14.984,14.984,0,0,0,474.956,305.265Z" transform="translate(-465.073 -287.787)" fill="url(#linear-gradient)"/>
              <g id="Group_2616" data-name="Group 2616" clip-path="url(#clip-path-2)">
                <path id="Path_2892" data-name="Path 2892" d="M471.849,287.787a12.337,12.337,0,0,0-3.288,2.883,16.617,16.617,0,0,0-2.29,3.721,12.778,12.778,0,0,0-1.2,5.133l9.883,5.741a12.8,12.8,0,0,1,1.2-5.133,16.617,16.617,0,0,1,2.29-3.721,12.328,12.328,0,0,1,3.288-2.88Z" transform="translate(-465.073 -287.787)" fill="#cbd3dc"/>
              </g>
            </g>
            <g id="Group_2618" data-name="Group 2618" transform="translate(9.883 5.743)">
              <g transform="matrix(1, 0, 0, 1, -12.56, -5.74)" filter="url(#Path_2894)">
                <path id="Path_2894-2" data-name="Path 2894" d="M554.144,337.461a14.989,14.989,0,0,1-6.773,11.734L475.3,390.807c-3.739,2.158-6.81.411-6.822-3.884l-.04-5.5,85.67-49.462Z" transform="translate(-455.43 -153.79)" fill="#f1f5fa"/>
              </g>
              <path id="Path_2895" data-name="Path 2895" d="M468.3,329.172l.415,160.424,85.673-49.461-.167-64.586-.18-70.318-.068-25.52Z" transform="translate(-468.278 -267.708)" fill="#14dcff"/>
              <path id="Path_2896" data-name="Path 2896" d="M468.292,330.075a14.984,14.984,0,0,1,6.776-11.734l72.076-41.615c3.739-2.158,6.806-.408,6.819,3.887l.022,7.19-85.67,49.465Z" transform="translate(-468.292 -275.802)" fill="#f1f5fa"/>
            </g>
          </g>
        </g>
        <g id="Group_2621" data-name="Group 2621" transform="translate(28.318 31.601)">
          <path id="Path_2897" data-name="Path 2897" d="M474.306,286.719a2.1,2.1,0,0,0,1.179,1.584,6.516,6.516,0,0,0,5.858,0,2.587,2.587,0,0,0,.872-.755c.635-.887.347-1.913-.872-2.628a6.516,6.516,0,0,0-5.858,0A1.913,1.913,0,0,0,474.306,286.719Z" transform="translate(-474.297 -284.224)" fill="url(#linear-gradient-3)"/>
          <path id="Path_2898" data-name="Path 2898" d="M474.3,286.015a2.1,2.1,0,0,0,1.179,1.584,6.516,6.516,0,0,0,5.858,0,2.586,2.586,0,0,0,.872-.755,2.057,2.057,0,0,0-1.2-1.584,6.471,6.471,0,0,0-5.836,0A2.62,2.62,0,0,0,474.3,286.015Z" transform="translate(-474.291 -283.521)" fill="#141e30"/>
        </g>
        <g id="Group_2622" data-name="Group 2622" transform="translate(13.305 36.956)">
          <path id="Path_2899" data-name="Path 2899" d="M469.6,292.239a2.257,2.257,0,0,0,.9.9,5.732,5.732,0,0,0,5.339-.031l5.695-3.346a2.314,2.314,0,0,0,.857-.826c.488-.8.206-1.695-.875-2.327a5.776,5.776,0,0,0-5.36.046l-5.637,3.389C469.475,290.649,469.159,291.487,469.6,292.239Z" transform="translate(-469.407 -285.969)" fill="url(#linear-gradient-4)"/>
          <path id="Path_2900" data-name="Path 2900" d="M469.47,291.3a2.257,2.257,0,0,0,.9.9,5.731,5.731,0,0,0,5.339-.031l5.695-3.346a2.314,2.314,0,0,0,.857-.826,2.074,2.074,0,0,0-.918-.936,5.777,5.777,0,0,0-5.36.049l-5.637,3.386A2.192,2.192,0,0,0,469.47,291.3Z" transform="translate(-469.276 -285.03)" fill="#141e30"/>
        </g>
        <path id="Path_2901" data-name="Path 2901" d="M504.572,287.861l-26.28,15.172c-1.133.654-2.06.12-2.06-1.188h0a4.569,4.569,0,0,1,2.06-3.567l26.28-15.172c1.13-.651,2.057-.117,2.057,1.191h0A4.574,4.574,0,0,1,504.572,287.861Z" transform="translate(-441.973 -255.513)" fill="url(#linear-gradient-5)"/>
        <g id="Group_2623" data-name="Group 2623" transform="translate(0 54.274)">
          <path id="Path_2902" data-name="Path 2902" d="M475.135,357.1c.006,2.134.768,3.638,1.986,4.347l-9.883-5.741c-1.222-.712-1.98-2.217-1.986-4.35l-.037-4.98,9.883,5.7Z" transform="translate(-464.777 -178.243)" fill="#cbd3dc"/>
          <path id="Path_2903" data-name="Path 2903" d="M465.073,291.61l9.883,5.743.02,7.185-9.883-5.706Z" transform="translate(-465.073 -291.61)" fill="#cbd3dc"/>
          <path id="Path_2904" data-name="Path 2904" d="M474.962,299.668l.418,160.908L465.5,454.87l-.419-160.908Z" transform="translate(-465.059 -286.74)" fill="#cbd3dc"/>
          <path id="Path_2905" data-name="Path 2905" d="M466.644,294.865l5.08,2.933.418,160.908-5.5-3.175Z" transform="translate(-461.821 -284.87)" fill="url(#linear-gradient-6)"/>
        </g>
      </g>
      <g id="Group_2643" data-name="Group 2643" transform="translate(20.724 134.337)">
        <g id="Group_2642" data-name="Group 2642">
          <path id="Path_2906" data-name="Path 2906" d="M499.04,323.014a23.38,23.38,0,0,0-2.748.734c-2.078.854-3.656,2.6-5.526,3.838-1.538,1.01-11.9,2.723-13.659,3.067-.1-1.265,1.818,8.35,1.857,8.446,0,0,9.665-6.739,10.463-7.049a15.378,15.378,0,0,1,3.638-.617,8.351,8.351,0,0,1,.725-2.444A5.141,5.141,0,0,1,496.36,327c.534-.725.81-1.3,1.173-1.492a9.553,9.553,0,0,1,1.507-.577Z" transform="translate(-460.893 -306.663)" fill="#f5c2a6"/>
          <path id="Path_2907" data-name="Path 2907" d="M472.35,333.224c39.272,84.992,6.112,7.494,9.477,11.215,5.5-.24,7.264-4.857,7.6-7.8-2.3-3.036-7.067-7.611-10.266-10.856C475.743,322.322,470.066,328.278,472.35,333.224Z" transform="translate(-471.823 -303.067)" fill="#8caed5"/>
          <g id="Group_2628" data-name="Group 2628" transform="translate(0.851)">
            <path id="Path_2908" data-name="Path 2908" d="M484.366,364.678c-2.2.927-4.875,2.892-7.236,1.369-1.722-1.108-.872-3.764-.034-5.624.8-1.722,1.664-2.944,3.571-3.527.562-.172,1.618-.4,2.082.068,1.695,1.679,5.3,1.449,7.574,1.388a7.316,7.316,0,0,1,2.091.117c1.9.51,2.474,2.668-.316,4.185C488.624,364.543,486.555,363.757,484.366,364.678Z" transform="translate(-463.762 -236.957)" fill="#171d23"/>
            <path id="Path_2909" data-name="Path 2909" d="M474,356.737s-1.839,4.172-.636,5.888c.332.476,2,.817,4,.639,1.311-.114,2.778-.715,4.071-.734a10.906,10.906,0,0,0,8.031-3.62c3.825-3.942-2.287-3.386-6.358-2.5A31.549,31.549,0,0,1,474,356.737Z" transform="translate(-470.326 -238.852)" fill="#171d23"/>
            <path id="Path_2910" data-name="Path 2910" d="M483.87,393.913l3.718-48.768c.405-3.34-1.48-6.545-4.814-6.951s-9.634-.8-10.165,2.527c-1.507,9.425,4.8,13.254,2.625,23.873-1.449,7.049-.82,25.307-.494,28.34S482.473,396.372,483.87,393.913Z" transform="translate(-471.536 -275.786)" fill="url(#linear-gradient-7)"/>
            <path id="Path_2911" data-name="Path 2911" d="M491.779,399.734c.869-5.538.718-14.208,1-22.068.23-6.509,1.194-26.185,1.194-26.185-.009-3.359-.258-14.638-3.343-14.632s-16.931.163-16.928,7.064c0,4.372-1.065,5.75,3.411,12.326,2.981,4.375,4.154,12.563,3.792,18.282-.675,10.684.132,25.193.132,25.285C481.338,402.761,491.512,401.432,491.779,399.734Z" transform="translate(-469.02 -278.021)" fill="url(#linear-gradient-8)"/>
            <g id="Group_2627" data-name="Group 2627">
              <g id="Group_2625" data-name="Group 2625" transform="translate(0 21.732)">
                <path id="Path_2912" data-name="Path 2912" d="M496.11,351.453c-.439,5.228,1.55,14.877,1.142,18.58-.4,3.623-24,4.132-25.018-.961-.8-4.028,2.324-12.661,1.919-16.437-.863-8.007-2-18.749-1.916-22.384a5.467,5.467,0,0,1,1.283-3.853c1.428-1.369,4.157-1.913,7.752-1.492l7.009,1.007c1.716.985,9.348,2.078,10.11,6.478a17.277,17.277,0,0,0-.986,4.074C497,339.928,496.174,350.7,496.11,351.453Z" transform="translate(-472.101 -324.767)" fill="#9cbfe8"/>
              </g>
              <g id="Group_2626" data-name="Group 2626" transform="translate(14.522 25.419)">
                <path id="Path_2913" data-name="Path 2913" d="M487.613,333.979a17.277,17.277,0,0,1,.986-4.074c-.307-1.765-1.719-3-3.414-3.905-7.212-.663-6.724,9.02-5.6,16.2,3.131,5.79,5.944,13.809,5.3,21.564-.163,4.019-4.037,5.637-8.05,6.561,5.471-.129,10.448-1.13,10.629-2.778.408-3.7-1.581-13.352-1.142-18.58C486.382,348.212,487.211,337.442,487.613,333.979Z" transform="translate(-476.831 -325.967)" fill="#8caed5"/>
              </g>
              <path id="Path_2914" data-name="Path 2914" d="M486.294,323.522l-.132.009c-.417-.946-3.46-.958-4.488-.979a35.432,35.432,0,0,0-5.446.166l-.338,1.477-.061.006a8.4,8.4,0,0,0-.178,3.052,7.972,7.972,0,0,1-.439,2.84c-.4,1.032-.5,2.032.783,2.668,3.386,1.679,7.469,1.363,8.3.031.574-.918-.553-2.272-.024-4.559.467-2.014,2.048-3.966,1.925-4.59Z" transform="translate(-466.218 -307.677)" fill="#ffd6bf"/>
              <path id="Path_2915" data-name="Path 2915" d="M487.854,323.494c.359,4.688.307,9.5-2.2,11.488a3.9,3.9,0,0,1-3.1.543c-.23-.034-.464-.083-.694-.138a12.255,12.255,0,0,1-3.319-1.394c-1.13-.706-2.468-4.915-2.809-6.358-1.081-4.574,2.364-4.98,5.244-7.205S487.495,318.812,487.854,323.494Z" transform="translate(-465.021 -314.585)" fill="#ffd6bf"/>
              <path id="Path_2916" data-name="Path 2916" d="M489.634,319.776A13.547,13.547,0,0,0,485.167,318a11.625,11.625,0,0,0-2.048-.313c-4.792.7-5.861,3.684-5.861,3.684s-9.235,4.829.537,15.774a3.759,3.759,0,0,1,.86,1.738c.467.23,4.046.282,4.694-.169a4.537,4.537,0,0,0,1.415-1.833c.332-.706.571-1.452.9-2.158a3.331,3.331,0,0,1,.792-1.148c.574-.485,1.4-.626,1.919-1.167a2.706,2.706,0,0,0,.6-1.992c-.015-.461-.077-.921-.1-1.379.006-.08.012-.157.018-.233a2.991,2.991,0,0,1,.918-2.035c.942-.81,1.986-.669,2.729-1.937C493.244,323.626,492.384,321.71,489.634,319.776Z" transform="translate(-469.6 -317.688)" fill="#816e5d"/>
              <path id="Path_2917" data-name="Path 2917" d="M489.634,319.776A13.548,13.548,0,0,0,485.167,318a11.627,11.627,0,0,0-2.048-.313c-4.792.7-5.861,3.684-5.861,3.684a7.676,7.676,0,0,0-3.567,9.066c3.181-4.264,9.25-4.381,13.956-2.742a5.239,5.239,0,0,1,1.323.608,2.678,2.678,0,0,1,.838-1.535c.942-.81,1.986-.669,2.729-1.937C493.244,323.626,492.385,321.71,489.634,319.776Z" transform="translate(-469.601 -317.688)" fill="#816e5d"/>
              <path id="Path_2918" data-name="Path 2918" d="M473.433,324.349a18.065,18.065,0,0,0,4.1,6.708,3.759,3.759,0,0,1,.86,1.738c.467.23,4.046.282,4.694-.169,1.311-.918,1.7-2.671,2.315-3.991a3.332,3.332,0,0,1,.792-1.148c.574-.485,1.4-.626,1.919-1.167a2.7,2.7,0,0,0,.6-1.992c-.015-.461-.077-.921-.1-1.379.006-.08.012-.156.018-.233.018-.166.046-.335.08-.5a5.241,5.241,0,0,0-1.323-.608C482.683,319.968,476.614,320.084,473.433,324.349Z" transform="translate(-469.343 -311.598)" fill="#746150"/>
              <path id="Path_2919" data-name="Path 2919" d="M480.172,323.412a1.63,1.63,0,1,1-2.376-1.105A1.9,1.9,0,0,1,480.172,323.412Z" transform="translate(-461.745 -308.427)" fill="#ffd6bf"/>
              <path id="Path_2920" data-name="Path 2920" d="M478.665,323.052a.653.653,0,1,1-.952-.442A.762.762,0,0,1,478.665,323.052Z" transform="translate(-461.057 -307.621)" fill="#f5c2a6"/>
            </g>
          </g>
          <g id="Group_2640" data-name="Group 2640" transform="translate(34.954 13.992)">
            <g id="Group_2639" data-name="Group 2639">
              <g id="Group_2638" data-name="Group 2638">
                <g id="Group_2629" data-name="Group 2629" transform="translate(2.598 11.201)">
                  <path id="Path_2921" data-name="Path 2921" d="M484.209,325.983l.15-.089a.339.339,0,0,1-.16.3l-.144.089a.332.332,0,0,0,.154-.3Z" transform="translate(-484.055 -325.894)" fill="#154902"/>
                </g>
                <g id="Group_2637" data-name="Group 2637">
                  <g id="Group_2636" data-name="Group 2636">
                    <g id="Group_2635" data-name="Group 2635">
                      <g id="Group_2630" data-name="Group 2630" transform="translate(2.877 14.828)">
                        <path id="Path_2922" data-name="Path 2922" d="M484.355,327.1c-.092-.058-.175-.018-.181.1l-.028.74a.4.4,0,0,0,.166.31l.629.393c.1.061.181.022.184-.092l.028-.74a.388.388,0,0,0-.166-.313Z" transform="translate(-484.146 -327.075)" fill="#9cb5cc"/>
                      </g>
                      <g id="Group_2634" data-name="Group 2634">
                        <g id="Group_2631" data-name="Group 2631" transform="translate(3.037 2.278)">
                          <path id="Path_2923" data-name="Path 2923" d="M484.2,322.988l-.007.183,1.644,1.027.006-.183Z" transform="translate(-484.198 -322.988)" fill="#9cb5cc"/>
                        </g>
                        <g id="Group_2632" data-name="Group 2632" transform="translate(0.338 1.347)">
                          <path id="Path_2924" data-name="Path 2924" d="M484.084,322.736c-.184-.114-.341-.034-.35.184l-.415,11.031a.76.76,0,0,0,.319.6l5.489,3.426c.184.117.341.031.35-.181l.414-11.031a.745.745,0,0,0-.322-.6Z" transform="translate(-483.319 -322.684)" fill="#283033"/>
                        </g>
                        <g id="Group_2633" data-name="Group 2633" transform="translate(0 0.425)">
                          <path id="Path_2925" data-name="Path 2925" d="M489.681,325.737a1.8,1.8,0,0,1,.761,1.43l-.473,12.581c-.021.516-.4.709-.832.436l-5.167-3.227a1.79,1.79,0,0,1-.761-1.434l.473-12.581c.018-.51.393-.709.832-.436Zm-5.959,8.664a.72.72,0,0,0,.3.571l5.2,3.251c.175.11.325.028.332-.175l.393-10.46a.7.7,0,0,0-.3-.571l-5.2-3.248c-.178-.11-.325-.034-.335.172l-.393,10.46Zm2.364,3.248a.4.4,0,0,0,.166.31l.629.393c.1.061.181.022.184-.092l.028-.74a.388.388,0,0,0-.166-.313l-.633-.393c-.092-.058-.175-.018-.181.1l-.028.74Zm1.808-12.385-1.642-1.025-.006.181,1.642,1.029.006-.184Z" transform="translate(-483.209 -322.384)" fill="#f2f2f2"/>
                        </g>
                        <path id="Path_2926" data-name="Path 2926" d="M484.244,322.293a.462.462,0,0,1,.332-.031.83.83,0,0,1,.243.107l5.167,3.227a1.482,1.482,0,0,1,.381.356,1.768,1.768,0,0,1,.381,1.074l-.473,12.581a.569.569,0,0,1-.255.513l-.8.427a.574.574,0,0,0,.258-.513l.473-12.581a1.78,1.78,0,0,0-.381-1.074,1.532,1.532,0,0,0-.381-.356l-5.167-3.23a.851.851,0,0,0-.242-.1.441.441,0,0,0-.335.031Z" transform="translate(-482.718 -322.246)" fill="#d7e7f7"/>
                      </g>
                    </g>
                  </g>
                </g>
                <path id="Path_2927" data-name="Path 2927" d="M483.631,323.958c.006-.089.07-.126.147-.08l2.542,1.59,2.542,1.587a.322.322,0,0,1,.135.252l-.169,4.811c0,.089-.068.123-.144.077l-2.542-1.587-2.542-1.59a.318.318,0,0,1-.135-.252Z" transform="translate(-482.678 -318.907)" fill="#83cff2"/>
                <path id="Path_2928" data-name="Path 2928" d="M483.586,323.16a.09.09,0,0,1,.147-.08l2.542,1.59,2.542,1.587a.323.323,0,0,1,.135.252l-.058,1.652c0,.089-.071.126-.144.077l-2.542-1.587-2.545-1.587a.347.347,0,0,1-.135-.255Z" transform="translate(-482.548 -320.558)" fill="#fff"/>
                <path id="Path_2929" data-name="Path 2929" d="M483.5,325.76c0-.089.067-.123.144-.077l2.542,1.587,2.542,1.587a.323.323,0,0,1,.135.255l-.058,1.649c0,.089-.067.126-.144.08l-2.542-1.59-2.542-1.587a.322.322,0,0,1-.135-.252Z" transform="translate(-482.734 -315.173)" fill="#fff"/>
              </g>
            </g>
          </g>
          <path id="Path_2930" data-name="Path 2930" d="M503.169,324.868c-.384-.418-.9-.574-1.1.08-.147.482.313,3.69-.669,4.725-.2.206-.734,1.148-1.6.289a16.544,16.544,0,0,1-1.253-1.91c-.556-.9-1.317-.236-.943.467a8.465,8.465,0,0,1,.817,1.977c.154,1.1,1.3,1.959,1.471,2.514.058.184-.055.571-.092.54-.476.709-2.088,5.987-4.191,6.18-3.393.316-10.107-9.084-10.107-9.084-1.511-1.259-3.291-1.87-4.9-.955a6.147,6.147,0,0,0-1.7,1.4c-2.4,2.889.15,5.56,1.814,6.944a8.529,8.529,0,0,0,2.4,2.564c4.151,3,11.451,9.18,15.611,6.981,2.757-1.458,3.874-7.853,4.27-9.041.863-2.61.942-5.062,1.811-7.663a7.24,7.24,0,0,0,.672-2.33C505.56,327.631,503.387,325.108,503.169,324.868Z" transform="translate(-459.207 -303.574)" fill="#ffd6bf"/>
          <g id="Group_2641" data-name="Group 2641" transform="translate(32.173 20.422)">
            <path id="Path_2931" data-name="Path 2931" d="M482.3,328.687a3.23,3.23,0,0,0,1.412-.488,5.315,5.315,0,0,1,2.171-.9,4.98,4.98,0,0,0,2.25-.528c.519-.4.565-1.025-.157-1.231-.832-.236-1.848.43-2.729.295-.946-.144-.368-.857.1-1.5a4.413,4.413,0,0,0-2.324,1.9A8.351,8.351,0,0,0,482.3,328.687Z" transform="translate(-482.303 -324.34)" fill="#f5c2a6"/>
          </g>
          <path id="Path_2932" data-name="Path 2932" d="M494.433,335.016l-8.771-7.571c-1.511-1.259-3.291-1.87-4.9-.955a6.147,6.147,0,0,0-1.7,1.4c-2.4,2.889-.8,7.138.869,8.523l0,0,9.9,6.711A10.979,10.979,0,0,0,494.433,335.016Z" transform="translate(-459.368 -300.374)" fill="#9cbfe8"/>
        </g>
      </g>
    </g>
    <g id="Group_2611" data-name="Group 2611" transform="translate(83.257 225.667)">
      <g id="Group_2610" data-name="Group 2610" transform="translate(22.059 55.653)">
        <rect id="Rectangle_7836" data-name="Rectangle 7836" width="30.899" height="1.804" transform="translate(0 30.899) rotate(-89.754)" fill="#fff"/>
      </g>
      <g id="Group_2609" data-name="Group 2609" transform="translate(2 1)">
        <g id="Group_2608" data-name="Group 2608">
          <g id="Group_2596" data-name="Group 2596" transform="translate(3 11.333)">
            <g id="Group_2595" data-name="Group 2595">
              <path id="Path_2879" data-name="Path 2879" d="M480.54,86.324c-9.746-5.687-17.633-19.491-17.581-30.776.025-5.6,1.981-9.787,5.506-11.8s8.13-1.57,12.962,1.249l-.353.606.353-.606c9.748,5.687,17.633,19.493,17.583,30.776-.027,5.6-1.981,9.787-5.507,11.8a9.672,9.672,0,0,1-4.907,1.244A16.4,16.4,0,0,1,480.54,86.324ZM469.16,44.962c-3.074,1.757-4.778,5.519-4.8,10.592-.05,10.839,7.527,24.1,16.887,29.559,4.384,2.559,8.491,3,11.563,1.244s4.778-5.517,4.8-10.592c.05-10.839-7.524-24.1-16.886-29.559h0a14.99,14.99,0,0,0-7.354-2.3A8.283,8.283,0,0,0,469.16,44.962Z" transform="translate(-462.959 -42.503)" fill="#fff"/>
            </g>
          </g>
          <g id="Group_2607" data-name="Group 2607" transform="translate(9.546 20.003)">
            <g id="Group_2598" data-name="Group 2598">
              <g id="Group_2597" data-name="Group 2597">
                <path id="Path_2880" data-name="Path 2880" d="M488.346,61.493a1.517,1.517,0,0,1-.44-.415c-6.419-8.827-14.86-13.765-20.528-12.008-.344.106-.838-.255-1.1-.807s-.2-1.085.147-1.19c6.2-1.923,15.4,3.432,22.372,13.018.357.492.446,1.11.2,1.383A.5.5,0,0,1,488.346,61.493Z" transform="translate(-466.115 -46.684)" fill="#fff"/>
              </g>
            </g>
            <g id="Group_2600" data-name="Group 2600" transform="translate(2.642 7.003)">
              <g id="Group_2599" data-name="Group 2599">
                <path id="Path_2881" data-name="Path 2881" d="M484.288,61.666a1.49,1.49,0,0,1-.44-.415c-4.756-6.539-11-10.2-15.2-8.9-.344.106-.836-.255-1.1-.807s-.2-1.085.147-1.19c4.724-1.464,11.733,2.609,17.04,9.907.357.492.446,1.11.2,1.383A.5.5,0,0,1,484.288,61.666Z" transform="translate(-467.389 -50.06)" fill="#fff"/>
              </g>
            </g>
            <g id="Group_2602" data-name="Group 2602" transform="translate(5.312 13.764)">
              <g id="Group_2601" data-name="Group 2601">
                <path id="Path_2882" data-name="Path 2882" d="M480.191,61.692a1.489,1.489,0,0,1-.44-.415c-3.076-4.227-7.11-6.6-9.814-5.757-.344.108-.836-.255-1.1-.8s-.2-1.085.147-1.193c3.235-1,8.028,1.779,11.654,6.767.359.492.448,1.11.2,1.383A.5.5,0,0,1,480.191,61.692Z" transform="translate(-468.676 -53.32)" fill="#fff"/>
              </g>
            </g>
            <g id="Group_2604" data-name="Group 2604" transform="translate(8.472 20.092)">
              <g id="Group_2603" data-name="Group 2603">
                <path id="Path_2883" data-name="Path 2883" d="M476.13,61.944a6.568,6.568,0,0,0-2.949-5.16c-1.636-.956-2.972-.193-2.98,1.7a6.575,6.575,0,0,0,2.949,5.162C474.786,64.6,476.119,63.839,476.13,61.944Z" transform="translate(-470.2 -56.371)" fill="#fff"/>
              </g>
            </g>
          </g>
        </g>
      </g>
    </g>
    <g id="Group_2646" data-name="Group 2646" transform="translate(100.374 304.647)">
      <path id="Path_2933" data-name="Path 2933" d="M481.807,84.039a12.959,12.959,0,0,0-5.812-10.174c-3.225-1.88-5.853-.38-5.87,3.356a12.93,12.93,0,0,0,5.808,10.17C479.158,89.275,481.791,87.771,481.807,84.039Z" transform="translate(-470.125 -73.055)" fill="red"/>
      <g id="Group_2645" data-name="Group 2645" transform="translate(3.036 3.94)">
        <path id="Path_2933-2" data-name="Path 2933" d="M872.475-1261l-5.975,4.121" transform="translate(-866.5 1263.06)" fill="none" stroke="#fff" stroke-width="2"/>
        <path id="Path_2934" data-name="Path 2934" d="M866.5-1262.667l5.357,8.036" transform="translate(-866.5 1262.667)" fill="none" stroke="#fff" stroke-width="2"/>
      </g>
    </g>
  </g>
</svg>
