<svg xmlns="http://www.w3.org/2000/svg" width="32.647" height="23.967" viewBox="0 0 32.647 23.967"><defs><style>.a{fill:#fe5f55;}</style></defs><g transform="translate(25.043 10.227)"><path class="a" d="M396.511,229.011a9.331,9.331,0,0,0-3.282-.562.478.478,0,0,0,0,.956,8.258,8.258,0,0,1,2.854.461.478.478,0,0,0,.428-.856Z" transform="translate(-392.751 -228.449)"/></g><g transform="translate(0 0)"><g transform="translate(0 0)"><path class="a" d="M31.188,85.663,29.212,85.1a.2.2,0,0,1-.145-.192v-.659a3.593,3.593,0,0,0,.457-.375A3.518,3.518,0,0,0,30.6,81.327v-.91l.191-.382a3.051,3.051,0,0,0,.32-1.357V76.214a.478.478,0,0,0-.478-.478h-4.6A3.038,3.038,0,0,0,23,78.771V78.8a2.537,2.537,0,0,0,.266,1.129l.245.49V81.2a3.731,3.731,0,0,0,1.534,3.017v.691c0,.107,0,.151-.395.264l-.964.275L20.9,84.432a.478.478,0,0,0-.13-.366l-.891-.936V81.559c.094-.078.187-.157.277-.242a5.613,5.613,0,0,0,1.768-4.08V75.982a5.528,5.528,0,0,0,.511-2.325V68.544a.478.478,0,0,0-.478-.478H14.8a4.574,4.574,0,0,0-4.569,4.569v1.023a5.528,5.528,0,0,0,.511,2.325v1.08a5.844,5.844,0,0,0,2.045,4.46V83.13l-.891.936a.478.478,0,0,0-.13.366L8.82,85.5a2.508,2.508,0,0,0-.591.31l-.462-.231A3.653,3.653,0,0,0,9.6,84.1a.478.478,0,0,0,0-.428,8.5,8.5,0,0,1-.42-2.969c-.011-.338-.022-.657-.042-.942A4.16,4.16,0,0,0,5.08,75.736,4.16,4.16,0,0,0,1.024,79.76c-.02.284-.031.6-.042.942a8.5,8.5,0,0,1-.42,2.969.478.478,0,0,0,0,.428A3.652,3.652,0,0,0,2.4,85.579l-1.283.642A2,2,0,0,0,0,88.021v3.533a.478.478,0,1,0,.956,0V88.021a1.05,1.05,0,0,1,.584-.944l1.6-.8.556.528a2.011,2.011,0,0,0,2.772,0l.556-.528.521.261a2.518,2.518,0,0,0-.385,1.335v3.681a.478.478,0,1,0,.956,0V87.873A1.572,1.572,0,0,1,9.147,86.4l3.1-1.128L13.54,87.21a.986.986,0,0,0,.726.436q.05,0,.1,0a.986.986,0,0,0,.7-.29l.788-.788v4.981a.478.478,0,1,0,.956,0V86.573l.788.788a.985.985,0,0,0,.7.29q.049,0,.1,0a.986.986,0,0,0,.726-.436l1.291-1.937,3.1,1.128a1.572,1.572,0,0,1,1.032,1.473v3.681a.478.478,0,1,0,.956,0V87.874a2.528,2.528,0,0,0-.707-1.75l.118-.034a2.622,2.622,0,0,0,.445-.161l1.221,1.221v4.4a.478.478,0,1,0,.956,0v-4.4l1.213-1.213a1.137,1.137,0,0,0,.2.081l1.975.564a1.06,1.06,0,0,1,.766,1.015v3.956a.478.478,0,1,0,.956,0V87.6A2.021,2.021,0,0,0,31.188,85.663Zm-28.12-.845a3.438,3.438,0,0,1-1.535-.985,5.271,5.271,0,0,0,.273-1.145,3.566,3.566,0,0,0,1.262,1.557Zm2.74,1.294a1.055,1.055,0,0,1-1.455,0l-.445-.423a.989.989,0,0,0,.116-.467v-.51a3.556,3.556,0,0,0,2.112,0v.509a.989.989,0,0,0,.116.467Zm-.727-2.2a2.593,2.593,0,0,1-2.59-2.59.475.475,0,0,0-.557-.471l0-.123c.011-.329.021-.639.04-.906a3.55,3.55,0,0,1,.967-2.23,2.971,2.971,0,0,1,4.271,0,3.55,3.55,0,0,1,.967,2.23c.019.266.029.577.04.906l0,.085a4.3,4.3,0,0,0-2.362-1.726A6,6,0,0,0,4.044,78.8a.478.478,0,0,0-.331.146l-.863.895a.478.478,0,0,0,.689.664l.718-.745A3.868,3.868,0,0,1,7.638,81.73,2.584,2.584,0,0,1,5.08,83.917Zm2.012.9v-.57a3.538,3.538,0,0,0,1.263-1.559,5.265,5.265,0,0,0,.272,1.143A3.454,3.454,0,0,1,7.092,84.82Zm4.6-7.758V75.875a.478.478,0,0,0-.048-.208,4.587,4.587,0,0,1-.464-2.01V72.635A3.616,3.616,0,0,1,14.8,69.022h6.68v4.635a4.587,4.587,0,0,1-.464,2.01.478.478,0,0,0-.048.208v1.362A4.591,4.591,0,0,1,19.5,80.619a4.759,4.759,0,0,1-.367.311l-.008.006a4.6,4.6,0,0,1-3.1.926A4.737,4.737,0,0,1,11.694,77.062Zm2.693,9.623a.03.03,0,0,1-.027.01.03.03,0,0,1-.024-.015l-1.487-2.231.479-.5,2.256,1.542Zm1.942-1.846-2.59-1.77v-.893a5.384,5.384,0,0,0,2.218.64q.189.012.376.012a5.539,5.539,0,0,0,2.585-.633v.874Zm1.993,1.841a.03.03,0,0,1-.024.015.029.029,0,0,1-.027-.01l-1.2-1.2,2.256-1.542.479.5Zm8.732-.4L25.97,85.191a1.312,1.312,0,0,0,.03-.284v-.2a3.353,3.353,0,0,0,.947.167l.11,0a3.552,3.552,0,0,0,1.054-.159v.193a1.143,1.143,0,0,0,.035.279Zm1.8-3.09a2.57,2.57,0,0,1-1.883.73,2.677,2.677,0,0,1-2.51-2.717V80.3a.478.478,0,0,0-.05-.214l-.3-.591a1.575,1.575,0,0,1-.165-.7v-.029a2.081,2.081,0,0,1,2.078-2.078h4.124v1.986a2.09,2.09,0,0,1-.219.93l-.241.483a.478.478,0,0,0-.051.214v1.023A2.569,2.569,0,0,1,28.859,83.186Z" transform="translate(0 -68.066)"/></g></g><g transform="translate(29.645 19.942)"><g transform="translate(0 0)"><path class="a" d="M465.4,380.814a.478.478,0,0,0-.478.478v3.068a.478.478,0,0,0,.956,0v-3.068A.478.478,0,0,0,465.4,380.814Z" transform="translate(-464.923 -380.814)"/></g></g><g transform="translate(2.045 20.574)"><path class="a" d="M32.555,390.728a.478.478,0,0,0-.478.478v2.436a.478.478,0,0,0,.956,0v-2.436A.478.478,0,0,0,32.555,390.728Z" transform="translate(-32.077 -390.728)"/></g><g transform="translate(12.272 4.345)"><g transform="translate(0 0)"><path class="a" d="M200.435,137.623c-1.809-1.809-5.593-1.463-7.136-1.23a.982.982,0,0,0-.839.978v1.1a.478.478,0,0,0,.956,0v-1.1a.032.032,0,0,1,.025-.032,15.107,15.107,0,0,1,3.107-.152,4.936,4.936,0,0,1,3.21,1.113.478.478,0,0,0,.676-.676Z" transform="translate(-192.46 -136.203)"/></g></g><g transform="translate(10.227 20.965)"><g transform="translate(0 0)"><path class="a" d="M160.862,396.853a.478.478,0,0,0-.478.478v2.045a.478.478,0,0,0,.956,0v-2.045A.478.478,0,0,0,160.862,396.853Z" transform="translate(-160.384 -396.853)"/></g></g><g transform="translate(21.476 20.965)"><g transform="translate(0 0)"><path class="a" d="M337.284,396.853a.478.478,0,0,0-.478.478v2.045a.478.478,0,0,0,.956,0v-2.045A.478.478,0,0,0,337.284,396.853Z" transform="translate(-336.806 -396.853)"/></g></g></svg>