<svg id="Capa_1" enable-background="new 0 0 511.937 511.937" height="512" viewBox="0 0 511.937 511.937" width="512" xmlns="http://www.w3.org/2000/svg"><g><path d="m457.091 110.885c-48.073-48.073-123.636-52.292-176.545-12.676-16.124-56.625-68.32-98.209-130.046-98.209-74.542 0-135.186 60.644-135.186 135.186v240.894c0 74.542 60.645 135.186 135.187 135.186 6.134 0 12.171-.419 18.091-1.214 7.466 1.255 15.018 1.885 22.571 1.885 34.618 0 69.236-13.177 95.591-39.532l170.338-170.338c52.708-52.709 52.708-138.473-.001-191.182zm-306.591-80.885c58 0 105.186 47.186 105.186 105.186v105.447h-210.372v-105.447c0-58 47.186-105.186 105.186-105.186zm-105.186 346.08v-105.447h210.373v105.447c0 58-47.186 105.186-105.186 105.186-58.001 0-105.187-47.186-105.187-105.186zm220.226 75.112c-2.468 2.468-5.038 4.77-7.681 6.941 17.444-22.769 27.827-51.219 27.827-82.052v-53.867l54.417 54.417zm170.338-170.338-74.563 74.563-75.629-75.629v-144.602c0-.545-.014-1.088-.021-1.632l1.456-1.456c41.012-41.012 107.743-41.012 148.756 0s41.013 107.744.001 148.756z"/></g></svg>