<svg id="Capa_1" enable-background="new 0 0 512 512" height="512" viewBox="0 0 512 512" width="512" xmlns="http://www.w3.org/2000/svg"><g><g><path d="m454.472 32.451h-396.944c-31.772 0-57.528 25.918-57.528 57.891v226.18 64.433 81.14c0 16.719 21.124 23.84 31.122 10.49l68.689-91.63h354.661c31.772 0 57.528-25.919 57.528-57.891v-232.722c0-31.973-25.756-57.891-57.528-57.891z" fill="#62dbfb"/></g><g><path d="m454.472 32.451h-25.086c-48.397 163.783-199.951 283.3-379.422 283.3-16.924 0-33.599-1.065-49.964-3.128v3.898 64.433 81.14c0 16.719 21.124 23.839 31.122 10.49l68.689-91.63h354.66c31.772 0 57.528-25.919 57.528-57.891v-232.721c.001-31.973-25.755-57.891-57.527-57.891z" fill="#01d0fb"/></g></g></svg>