<svg height="512pt" viewBox="0 0 512.00071 512" width="512pt" xmlns="http://www.w3.org/2000/svg"><path d="m288.109375 78.660156c1.878906 1.585938 4.171875 2.363282 6.453125 2.363282 2.839844 0 5.664062-1.203126 7.640625-3.542969l.175781-.207031c3.566406-4.214844 3.039063-10.527344-1.179687-14.09375-4.214844-3.566407-10.527344-3.035157-14.09375 1.179687l-.171875.207031c-3.570313 4.21875-3.039063 10.527344 1.175781 14.09375zm0 0"/><path d="m509.070312 154.1875-151.257812-151.257812c-3.90625-3.90625-10.234375-3.90625-14.140625 0l-30.253906 30.25c-3.90625 3.90625-3.90625 10.238281 0 14.144531l143.558593 143.554687-54.65625 46.039063-127.238281-127.238281 8.625-10.238282c3.558594-4.226562 3.019531-10.535156-1.207031-14.089844-4.222656-3.558593-10.53125-3.019531-14.089844 1.203126l-197.992187 235.054687c-9.058594 10.753906-10.660157 25.035156-4.902344 36.242187l-63.253906 77.3125c-3.253907 3.976563-2.964844 9.769532.667969 13.402344l60.503906 60.503906c1.941406 1.941407 4.503906 2.929688 7.074218 2.929688 2.234376 0 4.476563-.746094 6.328126-2.261719l77.308593-63.25c4.371094 2.246094 9.207031 3.375 14.121094 3.375 7.6875 0 15.5625-2.753906 22.125-8.28125l287.800781-242.421875c.105469-.09375.203125-.191406.304688-.285156.105468-.101562.21875-.191406.324218-.292969l30.25-30.253906c3.90625-3.902344 3.90625-10.234375 0-14.140625zm-122.101562 95.660156-148.851562 125.382813-101.347657-101.347657 125.378907-148.851562zm-315.792969 238.679688-47.707031-47.703125 55.339844-67.636719 60.003906 60.003906zm106.328125-62.242188c-4.667968 3.933594-11.914062 5.394532-16.734375.574219l-75.628906-75.628906c-.003906 0-.003906 0-.003906 0-4.816407-4.820313-3.355469-12.066407.578125-16.734375l38.121094-45.257813 98.929687 98.925781zm294.246094-248.917968-137.117188-137.113282 16.109376-16.113281 137.117187 137.117187zm0 0"/><path d="m219.230469 256-11.03125 11.027344c-6.394531 6.398437-6.394531 16.800781 0 23.195312l13.578125 13.578125c6.394531 6.390625 16.800781 6.390625 23.191406 0l11.03125-11.03125 11.03125 11.03125c3.195312 3.195313 7.394531 4.792969 11.597656 4.792969 4.199219 0 8.398438-1.597656 11.597656-4.792969l13.574219-13.578125c6.394531-6.394531 6.394531-16.796875 0-23.195312l-11.03125-11.027344 11.03125-11.03125c6.394531-6.394531 6.394531-16.796875 0-23.195312l-13.574219-13.574219c-6.394531-6.394531-16.800781-6.394531-23.195312 0l-11.03125 11.03125-11.03125-11.03125c-6.394531-6.394531-16.800781-6.394531-23.191406 0l-13.578125 13.574219c-6.394531 6.394531-6.394531 16.800781 0 23.195312zm21.214843-7.074219-15.558593-15.554687 8.484375-8.484375 15.558594 15.554687c1.875 1.875 4.417968 2.929688 7.070312 2.929688s5.195312-1.054688 7.070312-2.929688l15.558594-15.554687 8.484375 8.484375-15.558593 15.554687c-3.902344 3.90625-3.902344 10.238281 0 14.144531l15.558593 15.554688-8.484375 8.488281-15.558594-15.558593c-1.875-1.875-4.417968-2.929688-7.070312-2.929688s-5.195312 1.054688-7.070312 2.929688l-15.558594 15.558593-8.484375-8.488281 15.558593-15.554688c3.902344-3.90625 3.902344-10.238281 0-14.144531zm0 0"/><path d="m174.910156 398.574219-29.015625-29.015625c-3.90625-3.902344-10.238281-3.90625-14.144531 0-3.902344 3.90625-3.902344 10.238281 0 14.140625l29.019531 29.019531c1.953125 1.949219 4.511719 2.925781 7.070313 2.925781s5.117187-.976562 7.070312-2.925781c3.90625-3.90625 3.90625-10.238281 0-14.144531zm0 0"/><path d="m125.390625 349.058594c-3.917969-3.894532-10.25-3.875-14.144531.042968-3.894532 3.914063-3.875 10.246094.042968 14.140626l.167969.167968c1.949219 1.9375 4.5 2.90625 7.050781 2.90625 2.566407 0 5.136719-.984375 7.089844-2.949218 3.894532-3.917969 3.875-10.25-.039062-14.140626zm0 0"/></svg>