<svg xmlns="http://www.w3.org/2000/svg" width="27.019" height="27.705" viewBox="0 0 27.019 27.705">
  <path id="Icon_awesome-hospital" data-name="Icon awesome-hospital" d="M25.769,25.421v1.033H0V25.421a.658.658,0,0,1,.69-.62h1.15V6.2a1.316,1.316,0,0,1,1.38-1.24H8.283V1.24A1.316,1.316,0,0,1,9.663,0h6.442a1.316,1.316,0,0,1,1.38,1.24V4.96h5.062a1.316,1.316,0,0,1,1.38,1.24V24.8h1.15A.658.658,0,0,1,25.769,25.421Zm-8.053-15.5h-2.3a.658.658,0,0,0-.69.62v2.067a.658.658,0,0,0,.69.62h2.3a.658.658,0,0,0,.69-.62V10.541A.658.658,0,0,0,17.716,9.921ZM8.053,13.227h2.3a.658.658,0,0,0,.69-.62V10.541a.658.658,0,0,0-.69-.62h-2.3a.658.658,0,0,0-.69.62v2.067A.658.658,0,0,0,8.053,13.227Zm5.982,6.614h-2.3a.658.658,0,0,0-.69.62V24.8h3.681v-4.34A.658.658,0,0,0,14.035,19.841Zm3.681-4.96h-2.3a.658.658,0,0,0-.69.62v2.067a.658.658,0,0,0,.69.62h2.3a.658.658,0,0,0,.69-.62V15.5A.658.658,0,0,0,17.716,14.881Zm-6.672.62a.658.658,0,0,0-.69-.62h-2.3a.658.658,0,0,0-.69.62v2.067a.658.658,0,0,0,.69.62h2.3a.658.658,0,0,0,.69-.62ZM10.469,4.96h1.5V6.3a.329.329,0,0,0,.345.31h1.15A.329.329,0,0,0,13.8,6.3V4.96h1.5a.329.329,0,0,0,.345-.31V3.617a.329.329,0,0,0-.345-.31H13.8V1.963a.329.329,0,0,0-.345-.31h-1.15a.329.329,0,0,0-.345.31V3.307h-1.5a.329.329,0,0,0-.345.31V4.65A.329.329,0,0,0,10.469,4.96Z" transform="translate(0.625 0.625)" fill="none" stroke="#b3bcc9" stroke-width="1.25"/>
</svg>
