<svg id="Layer_3" enable-background="new 0 0 64 64" height="512" viewBox="0 0 64 64" width="512" xmlns="http://www.w3.org/2000/svg"><path d="m31.6 23.2c-1.986-1.49-3.264-3.756-3.541-6.2h1.941v-2h-2v-2h1c.552 0 1-.447 1-1v-10c0-.553-.448-1-1-1h-18c-.552 0-1 .447-1 1v10c0 .553.448 1 1 1h1v2h-2v2h1.941c-.277 2.444-1.555 4.71-3.541 6.2-2.755 2.067-4.4 5.357-4.4 8.8v26c0 2.757 2.243 5 5 5h22c2.757 0 5-2.243 5-5v-26c0-3.443-1.645-6.733-4.4-8.8zm-19.6-20.2h16v8h-16zm2 10h12v2h-12zm20 45c0 1.654-1.346 3-3 3h-22c-1.654 0-3-1.346-3-3v-26c0-2.817 1.346-5.509 3.6-7.2 2.486-1.865 4.056-4.728 4.341-7.8h12.119c.285 3.071 1.854 5.935 4.341 7.8 2.254 1.691 3.6 4.383 3.6 7.2v26z"/><path d="m9 31c-.552 0-1 .447-1 1v18c0 .553.448 1 1 1h22c.552 0 1-.447 1-1v-18c0-.553-.448-1-1-1zm21 18h-20v-16h20z"/><path d="m59.741 41.329c-.189-.21-.458-.329-.741-.329h-20c-.283 0-.552.119-.741.329-.19.209-.282.489-.254.771l2 20c.051.51.481.9.995.9h16c.514 0 .944-.39.995-.9l2-20c.028-.282-.064-.562-.254-.771zm-19.636 1.671h11.895v2h-4v2h4v2h-2v2h2v2h-4v2h4v2h-2v2h2v2h-10.095zm15.99 18h-2.095v-18h3.895z"/></svg>